<svg id="Layer_1" data-name="Layer 1" xmlns="http://www.w3.org/2000/svg" viewBox="0 0 1017.03 562.08"><defs><style>.cls-1{fill:#fff;stroke:#231f20;stroke-miterlimit:10;stroke-width:5px;}</style></defs><path class="cls-1" d="M78.24,510.57c24.69-5,32.86-23,32.86-40.84,0-22.46-16.15-42.88-46.78-43.07-20.61,0-41.21-.19-61.82-.19v23H64.32c15.41,0,22.28,10.4,22.28,20.8s-6.69,20.79-22.28,20.79H2.5v65.53H27V513.17H50.58l37.87,43.44H117.6v-1.67Z"/><path class="cls-1" d="M439.75,556.61H419l-16.15-40.84-13.74-41-13.55,41.4-15.78,40.47H339L291.23,426.66h27.48l30.63,93.75,31.56-93.75h16l32.48,93.75,29.71-93.75h27.47Z"/><path class="cls-1" d="M613.34,427.4,555.6,489.59l62.57,65.54v1.48H587.91l-54.4-57.55v57.55H509V426.66h24.5v54.95l49.38-54.95h30.45Z"/><path class="cls-1" d="M754.25,492.38c-.37,33.6-21,67.2-66.65,67.2s-66.83-32.85-66.83-67,21.9-68.51,66.83-68.51C732.34,424.06,754.62,458.4,754.25,492.38Zm-109.35.55c.56,21.36,12.07,44.19,42.7,44.19s42.14-23,42.52-44.37c.36-21.91-11.89-46.41-42.52-46.41S644.35,471,644.9,492.93Z"/><path class="cls-1" d="M894,490.52c.56,32.86-19.49,66.09-65,66.09H778V426.66h51C873.62,426.66,893.48,458.4,894,490.52ZM802.33,533h26.73c29.52,0,41.22-21.54,40.66-42.7-.55-20.24-12.44-40.47-40.66-40.47H802.33Z"/><path class="cls-1" d="M1014.53,556.61H917.25V426.66h97.28v23.76h-73v29.89h70.36v22.84H941.57v29.33h73Z"/><path class="cls-1" d="M266.45,546.32l-.81.87-4.1,4.63-4.2,4.8h62.28l-85-111.46-14.13-18.5-14.13,18.5-85,111.46h62.28l-4.2-4.8-4.1-4.63-.81-.87a20.88,20.88,0,0,1-2.37-3.39c-4.42-9.12,3.77-19.31,3.77-19.31L220.45,464l44.6,59.59s8.2,10.19,3.77,19.31A20.88,20.88,0,0,1,266.45,546.32Z"/><path class="cls-1" d="M220.45,418.63a34.43,34.43,0,1,1,34.43-34.43A34.47,34.47,0,0,1,220.45,418.63Zm0-54.64a20.21,20.21,0,1,0,20.21,20.21A20.24,20.24,0,0,0,220.45,364Z"/><path class="cls-1" d="M289.24,2.56v284.9c13.35-58.09,50.17-106.57,86.63-152.26,13.34-15.76,26.34-32,41.32-46.27h75c25.69-29.05,52.27-57.32,77.91-86.41C570.11,2.52,293.4,2.54,289.24,2.56Z"/><path class="cls-1" d="M542.89,193.11C603.05,128.21,665.36,65.35,727.73,2.5h-133C535.15,68.14,453.6,157.28,404.16,210.83c-12.09,12.83-24,26.39-31.08,42.74-19.19,41.8-17.53,89.09-18.75,134,42.93-43.57,86-87,128.49-131,27.66,29.28,84.49,85.37,122.58,124H727.79S551,201.41,542.89,193.11Z"/></svg>